<?xml version="1.0" encoding="utf-8"?>
<!-- Generator: Adobe Illustrator 21.1.0, SVG Export Plug-In . SVG Version: 6.00 Build 0)  -->
<svg version="1.1" id="Шар_1" xmlns="http://www.w3.org/2000/svg" xmlns:xlink="http://www.w3.org/1999/xlink" x="0px" y="0px"
	 viewBox="0 0 82.2 82.2" style="enable-background:new 0 0 82.2 82.2;" xml:space="preserve">
<style type="text/css">
	.st0{fill:#FFFFFF;stroke:#FFFFFF;stroke-width:0.5;stroke-miterlimit:10;}
</style>
<title>info</title>
<path class="st0" d="M41.1,73.1c17.7,0,32-14.3,32-32s-14.3-32-32-32s-32,14.3-32,32c0,8.5,3.4,16.6,9.4,22.6
	C24.5,69.8,32.6,73.1,41.1,73.1z M19.9,19.9c11.7-11.7,30.7-11.7,42.4,0s11.7,30.7,0,42.4s-30.7,11.7-42.4,0
	c-5.6-5.6-8.8-13.3-8.8-21.2C11.1,33.2,14.3,25.5,19.9,19.9z"/>
<rect x="40.1" y="34.1" class="st0" width="2" height="22"/>
<rect x="40.1" y="26.1" class="st0" width="2" height="4"/>
</svg>
