<?xml version="1.0" encoding="utf-8"?>
<!-- Generator: Adobe Illustrator 21.1.0, SVG Export Plug-In . SVG Version: 6.00 Build 0)  -->
<svg version="1.1" id="Шар_1" xmlns="http://www.w3.org/2000/svg" xmlns:xlink="http://www.w3.org/1999/xlink" x="0px" y="0px"
	 viewBox="0 0 148.2 71.1" style="enable-background:new 0 0 148.2 71.1;" xml:space="preserve">
<style type="text/css">
	.st0{fill:#4E8ECB;}
</style>
<g id="Шар_2">
	<g id="Шар_1-2">
		<path class="st0" d="M34.3,3.1c-13.6,24.6-13.6,39.8,1.3,62.1C-0.1,44.3,16.9,15,34.3,3.1z"/>
		<path class="st0" d="M18.1,11.8C2.9,32,6.8,45.3,19.9,58.8C-15,39.7,3.7,19.4,18.1,11.8L18.1,11.8z"/>
		<path class="st0" d="M113.8,3.1c13.6,24.6,13.6,39.8-1.4,62.1C148.2,44.3,131.2,15,113.8,3.1z"/>
		<path class="st0" d="M130,11.8c15.2,20.2,11.3,33.5-1.7,47C163.2,39.6,144.5,19.4,130,11.8z"/>
		<path class="st0" d="M53.9,30.8c0,1.6-0.2,3.1-0.7,4.6c-0.4,1.3-1,2.5-1.9,3.5c-0.9,1-2,1.7-3.3,2.2c-1.4,0.5-2.9,0.8-4.4,0.8
			c-1.5,0-2.9-0.2-4.3-0.6c-1.2-0.4-2.2-1.1-3.1-1.9c-0.8-0.9-1.5-2.1-1.8-3.3c-0.4-1.6-0.7-3.2-0.6-4.8c0-1.5,0.2-3.1,0.7-4.5
			c0.4-1.2,1.1-2.3,1.9-3.3c0.9-1,2-1.7,3.3-2.2c1.4-0.5,2.9-0.8,4.4-0.8c1.5-0.1,2.9,0,4.3,0.4c1.2,0.4,2.2,1.1,3.1,1.9
			c0.9,0.9,1.5,2.1,1.8,3.3c0.4,1.5,0.7,3.1,0.6,4.7L53.9,30.8z M49.4,31.1c0-1-0.1-2-0.3-3c-0.1-0.8-0.4-1.6-0.9-2.3
			c-0.4-0.6-1-1.1-1.7-1.5c-0.8-0.4-1.7-0.6-2.6-0.5c-0.9,0-1.8,0.2-2.6,0.6c-0.7,0.4-1.3,0.9-1.7,1.6c-0.5,0.7-0.8,1.5-0.9,2.3
			c-0.2,0.9-0.3,1.9-0.3,2.8c0,1,0.1,2.1,0.3,3.1c0.1,0.8,0.4,1.6,0.9,2.3c0.4,0.6,1,1.2,1.6,1.5c0.8,0.4,1.7,0.5,2.6,0.5
			c0.9,0,1.8-0.2,2.6-0.6c0.7-0.4,1.3-0.9,1.7-1.6c0.5-0.7,0.8-1.5,0.9-2.3C49.3,33,49.4,32,49.4,31.1L49.4,31.1z M71.2,39.9
			c0,0.1,0,1.4-0.2,1.6c-13,0-14.3,0.6-14.2-1.4v-0.7c0-0.2,0-0.4,0-0.6c0-0.2,0-0.4,0-0.6c0.4-0.9,1.9-3.1,9.1-14.2h-8.1
			c-0.1,0-0.2,0-0.3,0c-0.1-0.1-0.2-0.2-0.2-0.3c-0.1-0.4-0.1-2.7,0.2-3c0.1,0,0.2,0,0.3,0c12.1,0,12-0.2,12.6,0.3
			c0.2,0.3,0.3,0.6,0.3,1c0,0.6,0,1,0,1.5c0,0.2,0,0.4,0,0.6c-0.3,0.9-1.1,1.9-9.1,14c0,0,8.8,0,8.9,0C71.4,38.1,71,39.9,71.2,39.9z
			 M93.9,30.9c0,1.6-0.2,3.1-0.7,4.6c-0.4,1.3-1.1,2.4-2,3.4c-0.9,1-2,1.7-3.3,2.2c-1.4,0.5-2.9,0.8-4.4,0.8c-1.5,0-2.9-0.2-4.3-0.6
			c-1.2-0.4-2.2-1.1-3.1-1.9c-0.8-0.9-1.5-2.1-1.8-3.3c-0.4-1.6-0.7-3.2-0.6-4.8c0-1.5,0.2-3.1,0.7-4.5c0.4-1.2,1.1-2.3,1.9-3.3
			c0.9-1,2-1.7,3.3-2.2c1.4-0.5,2.9-0.8,4.4-0.8c1.4,0,2.9,0.2,4.2,0.6c1.2,0.4,2.2,1.1,3.1,1.9c0.9,0.9,1.5,2.1,1.8,3.3
			c0.4,1.5,0.7,3.1,0.6,4.7L93.9,30.9z M89.4,31.1c0-1-0.1-2-0.3-3c-0.1-0.8-0.4-1.6-0.9-2.3c-0.4-0.6-1-1.1-1.7-1.5
			c-0.8-0.4-1.7-0.6-2.6-0.5c-0.9,0-1.8,0.2-2.6,0.6c-0.7,0.4-1.3,0.9-1.7,1.6c-0.5,0.7-0.8,1.5-0.9,2.3c-0.2,0.9-0.3,1.9-0.3,2.8
			c0,1,0.1,2.1,0.3,3.1c0.1,0.8,0.4,1.6,0.9,2.3c0.4,0.6,1,1.2,1.6,1.5c0.8,0.4,1.7,0.5,2.6,0.5c0.9,0,1.8-0.2,2.6-0.6
			c0.7-0.4,1.3-0.9,1.7-1.6c0.5-0.7,0.8-1.5,0.9-2.3C89.3,33,89.4,32.1,89.4,31.1L89.4,31.1z M116.2,40.1c0.1,0.8-0.3,1.3-0.9,1.4
			h-0.6h-1.8c-0.3,0-0.7,0-1,0c-0.3-0.1-0.5-0.2-0.8-0.4c-0.3-0.2-0.5-0.5-0.7-0.8c-0.3-0.4-0.5-0.9-0.7-1.3
			c-4.9-9.3-5.6-10.5-6.2-11.8c-0.3-0.7-0.6-1.3-0.9-2l0,0c0,0.8,0,1.5,0,2.3c0,5.2,0,1.5,0,13.3c0,0.1,0,0.2,0,0.3
			c-0.1,0.1-0.2,0.2-0.3,0.2c-0.7,0-2.4,0-3.1,0c-0.1,0-0.2-0.1-0.3-0.2c0-0.1,0-0.2,0-0.3V22.1c0-0.4,0.1-0.9,0.5-1.2
			c0.3-0.2,0.6-0.3,1-0.3h2.3c0.3,0,0.7,0,1.1,0c0.3,0.1,0.5,0.2,0.8,0.4c0.2,0.2,0.5,0.4,0.6,0.7c0.2,0.3,0.4,0.7,0.6,1.1
			c5.1,9.7,4.4,8.4,5.4,10.5l0.6,1.3l0.6,1.3l0,0c0-0.8,0-1.5,0-2.4s0-1.6,0-2.3v-9.9c0-0.1,0-0.2,0-0.3c0.1-0.1,0.2-0.2,0.3-0.2
			c1,0,1.6,0,2.5,0c0.2,0,0.4,0,0.6,0c0.1,0,0.2,0.1,0.3,0.2c0,0.1,0,0.2,0,0.3L116.2,40.1L116.2,40.1z"/>
		<g>
			<path class="st0" d="M43.7,60c0,0.3,0,0.7-0.1,1c-0.1,0.3-0.2,0.5-0.3,0.7c-0.1,0.2-0.3,0.4-0.6,0.5c-0.2,0.1-0.5,0.2-0.8,0.2
				h-0.3l-0.3-0.1L41,62.1l-0.3-0.2v1.9l0,0h-0.1h-0.2h-0.6h-0.2h-0.1l0,0V58l0,0l0,0h0.2h0.5h0.2l0,0l0,0v0.5l0.4-0.3l0.4-0.2
				l0.4-0.1h0.4c0.3,0,0.5,0.1,0.8,0.2c0.2,0.1,0.4,0.3,0.5,0.5c0.1,0.2,0.2,0.5,0.3,0.7c0.1,0.3,0.1,0.6,0.1,0.9L43.7,60z M42.5,60
				c0-0.2,0-0.3,0-0.5c0-0.1-0.1-0.3-0.1-0.4c-0.1-0.1-0.1-0.2-0.2-0.3c-0.1-0.1-0.3-0.1-0.4-0.1h-0.2l-0.2,0.1L41,59l-0.3,0.3v1.5
				c0.1,0.2,0.3,0.3,0.5,0.5c0.1,0.1,0.3,0.2,0.5,0.2c0.1,0,0.3,0,0.4-0.1c0.1-0.1,0.2-0.2,0.3-0.3c0.1-0.1,0.1-0.3,0.1-0.4
				c0-0.2,0-0.3,0-0.5L42.5,60z M48.5,62L48.5,62L48.5,62h-0.2h-0.5h-0.1l0,0l0,0v-0.4c-0.2,0.2-0.4,0.4-0.7,0.6
				c-0.2,0.1-0.5,0.2-0.7,0.2c-0.2,0-0.5,0-0.7-0.1c-0.2-0.1-0.3-0.2-0.5-0.4c-0.1-0.2-0.2-0.4-0.2-0.6c0-0.3,0-0.5,0-0.8V58l0,0H45
				h0.2h0.6h0.2H46l0,0v2.3c-0.1,0.1-0.1,0.3-0.1,0.4c0,0.1,0.1,0.2,0.1,0.3c0.1,0.1,0.1,0.1,0.2,0.2c0.1,0,0.2,0,0.3,0
				c0.2,0,0.3-0.1,0.4-0.2c0.2-0.1,0.3-0.3,0.5-0.5V58l0,0h0.1h0.2h0.6h0.2h0.1l0,0L48.5,62L48.5,62z M53.9,59.9c0,0.3,0,0.7-0.1,1
				c-0.1,0.3-0.2,0.5-0.3,0.7c-0.1,0.2-0.3,0.4-0.6,0.5c-0.2,0.1-0.5,0.2-0.7,0.2h-0.4c-0.1,0-0.2-0.1-0.3-0.1L51.1,62l-0.3-0.3v0.4
				l0,0l0,0h-0.2h-0.5h-0.2l0,0l0,0v-6l0,0H50h0.2h0.6h0.2H51l0,0v2.3l0.3-0.3l0.3-0.2l0.3-0.1h0.4c0.3,0,0.5,0.1,0.8,0.2
				c0.2,0.1,0.4,0.3,0.5,0.5c0.1,0.2,0.2,0.5,0.3,0.7C54,59.5,54,59.7,54,60L53.9,59.9z M52.7,59.9c0-0.2,0-0.3,0-0.5
				c0-0.1-0.1-0.3-0.1-0.4c-0.1-0.1-0.1-0.2-0.2-0.3c-0.1-0.1-0.3-0.1-0.4-0.1h-0.2l-0.2,0.1l-0.2,0.2l-0.3,0.3v1.6
				c0.1,0.2,0.3,0.3,0.5,0.5c0.1,0.1,0.3,0.2,0.5,0.2c0.1,0,0.3,0,0.4-0.1c0.1-0.1,0.2-0.2,0.3-0.3c0.1-0.1,0.1-0.3,0.1-0.4
				c0-0.2,0-0.3,0-0.5L52.7,59.9z M55.9,62L55.9,62L55.9,62h-0.3h-0.6h-0.2h-0.1l0,0V56l0,0h0.1h0.2h0.6h0.2h0.1l0,0v6.1V62z
				 M58.3,62L58.3,62L58.3,62H58h-0.6h-0.2h-0.1l0,0v-4l0,0h0.1h0.2H58h0.2h0.1l0,0v4.1V62z M58.3,56.6c0,0.2,0,0.3-0.1,0.5
				c-0.3,0.2-0.7,0.2-1.1,0C57,56.9,57,56.8,57,56.6c0-0.2,0-0.3,0.1-0.5c0.3-0.2,0.7-0.2,1.1,0C58.3,56.3,58.3,56.4,58.3,56.6z
				 M62.5,61.5c0,0,0,0.1,0,0.2c0,0,0,0.1,0,0.1v0.1l0,0L62.3,62L62,62.2l-0.4,0.1h-0.4c-0.3,0-0.6,0-0.8-0.1
				c-0.2-0.1-0.5-0.2-0.6-0.4c-0.2-0.2-0.3-0.5-0.4-0.7c-0.1-0.3-0.1-0.6-0.1-1c0-0.4,0-0.7,0.2-1.1c0.1-0.3,0.2-0.5,0.4-0.7
				c0.2-0.2,0.4-0.3,0.7-0.4c0.3-0.1,0.6-0.1,0.8-0.1h0.4H62l0.3,0.1l0.2,0.1l0,0v0.1c0,0,0,0.1,0,0.1c0,0,0,0.1,0,0.2
				c0,0.1,0,0.3,0,0.4c0,0,0,0.1-0.1,0.1c-0.1,0-0.1,0-0.2,0L62,58.6l-0.3-0.1c-0.1,0-0.3,0-0.4,0c-0.3,0-0.5,0.1-0.7,0.4
				c-0.2,0.3-0.3,0.7-0.2,1c0,0.2,0,0.4,0,0.6c0,0.2,0.1,0.3,0.2,0.4c0.1,0.1,0.2,0.2,0.3,0.2c0.1,0,0.3,0,0.4,0c0.1,0,0.3,0,0.4,0
				l0.3-0.2l0.2-0.2c0,0,0.1,0,0.1,0l0,0l0,0c0,0.1,0,0.1,0,0.2c0,0,0,0.1,0,0.2L62.5,61.5z M72,62.1L72,62.1L72,62.1h-0.3h-0.6H71
				h-0.1l0,0v-2.5c0-0.1,0-0.2,0-0.4c0-0.1-0.1-0.2-0.2-0.3c0-0.1-0.1-0.1-0.2-0.2c-0.1,0-0.2,0-0.3,0c-0.2,0-0.3,0.1-0.4,0.2
				c-0.2,0.1-0.3,0.3-0.5,0.5v2.7l0,0h-0.1h-0.2h-0.6h-0.2h-0.1l0,0v-2.5c0-0.1,0-0.2,0-0.4c0-0.1-0.1-0.2-0.1-0.3
				c0-0.1-0.1-0.1-0.2-0.2c-0.1,0-0.2,0-0.3,0c-0.2,0-0.3,0-0.5,0.2c-0.2,0.1-0.3,0.3-0.5,0.5v2.7l0,0h-0.1h-0.2h-0.6h-0.2h-0.1l0,0
				V58l0,0l0,0h0.2h0.5h0.2l0,0l0,0v0.5c0.2-0.2,0.5-0.4,0.8-0.6c0.2-0.1,0.5-0.2,0.7-0.2c0.2,0,0.3,0,0.5,0c0.1,0,0.2,0.1,0.4,0.2
				c0.1,0.1,0.2,0.1,0.3,0.2c0.1,0.1,0.1,0.2,0.2,0.3l0.4-0.3l0.4-0.2l0.4-0.1h0.4c0.2,0,0.5,0,0.7,0.1c0.2,0.1,0.3,0.2,0.5,0.4
				c0.1,0.2,0.2,0.4,0.2,0.6c0,0.2,0,0.5,0,0.7L72,62.1L72,62.1z M77.4,60c0,0.3,0,0.6-0.1,1c-0.1,0.3-0.2,0.5-0.4,0.7
				c-0.2,0.2-0.4,0.4-0.7,0.5c-0.3,0.1-0.7,0.2-1,0.2c-0.3,0-0.7,0-1-0.2c-0.3-0.1-0.5-0.2-0.7-0.4c-0.2-0.2-0.3-0.4-0.4-0.7
				c-0.1-0.3-0.1-0.6-0.1-1c0-0.3,0-0.6,0.1-1c0.1-0.3,0.2-0.5,0.4-0.7c0.2-0.2,0.4-0.4,0.7-0.5c0.3-0.1,0.7-0.2,1-0.2
				c0.3,0,0.7,0,1,0.1c0.3,0.1,0.5,0.2,0.7,0.4c0.2,0.2,0.3,0.4,0.4,0.7C77.3,59.3,77.4,59.7,77.4,60L77.4,60z M76.2,60
				c0-0.2,0-0.4,0-0.6c0-0.2-0.1-0.3-0.2-0.4c-0.1-0.1-0.2-0.2-0.3-0.3c-0.1-0.1-0.3-0.1-0.5-0.1c-0.2,0-0.3,0-0.5,0.1
				c-0.2,0-0.3,0.1-0.4,0.3c-0.1,0.1-0.2,0.3-0.2,0.4c0,0.2,0,0.4,0,0.6c0,0.2,0,0.4,0,0.6c0,0.2,0.1,0.3,0.2,0.4
				c0.1,0.1,0.2,0.2,0.3,0.3c0.1,0.1,0.3,0.1,0.5,0.1c0.2,0,0.3,0,0.5-0.1c0.1-0.1,0.2-0.2,0.3-0.3c0.1-0.1,0.1-0.3,0.2-0.4
				c0-0.2,0-0.4,0-0.6H76.2z M82.2,62.1L82.2,62.1L82.2,62.1H82h-0.5h-0.2h-0.1l0,0v-2.3c0-0.2,0-0.3,0-0.5C81.1,59.2,81,59,80.9,59
				c-0.1-0.1-0.1-0.1-0.2-0.2c-0.1,0-0.2,0-0.3,0c-0.2,0-0.3,0.1-0.4,0.2c-0.2,0.1-0.3,0.3-0.5,0.5v2.7l0,0h-0.1h-0.2h-0.6h-0.2
				h-0.1l0,0V58l0,0l0,0h0.2H79h0.2l0,0l0,0v0.5c0.2-0.2,0.4-0.4,0.7-0.6c0.2-0.1,0.5-0.2,0.7-0.2c0.2,0,0.5,0,0.7,0.1
				c0.2,0.1,0.3,0.2,0.5,0.4c0.1,0.2,0.2,0.4,0.2,0.6c0,0.3,0,0.5,0,0.8v2.5L82.2,62.1z M84.5,62.1L84.5,62.1L84.5,62.1h-0.3h-0.6
				h-0.2h-0.1l0,0V58l0,0h0.1h0.2h0.6h0.2h0.1l0,0V62.1L84.5,62.1z M84.6,56.5c0,0.2,0,0.3-0.1,0.5c-0.3,0.2-0.7,0.2-1.1,0
				c-0.1-0.1-0.2-0.3-0.1-0.5c0-0.2,0-0.3,0.1-0.5c0.3-0.2,0.7-0.2,1.1,0C84.6,56.2,84.7,56.4,84.6,56.5z M88.2,61.7
				c0,0.1,0,0.2,0,0.3c0,0.1,0,0.1,0,0.2h-0.1h-0.2h-0.2h-0.2c-0.2,0-0.4,0-0.6,0c-0.2-0.1-0.3-0.1-0.4-0.3
				c-0.1-0.1-0.2-0.3-0.2-0.5c0-0.2,0-0.4,0-0.7v-2h-0.5c-0.1,0-0.1,0-0.1-0.1c0-0.1,0-0.2,0-0.4c0-0.1,0-0.2,0-0.2c0,0,0-0.1,0-0.1
				l0,0H86V57l0,0h0.1h0.2h0.5H87h0.1l0,0v0.9h1l0,0c0,0,0,0.1,0,0.1c0,0.1,0,0.2,0,0.2c0,0.1,0,0.2,0,0.4c0,0,0,0.1-0.1,0.1H87v2
				c0,0.2,0,0.3,0.1,0.5c0.1,0.1,0.2,0.2,0.4,0.2h0.2h0.1h0.1H88l0,0v0.1c0,0.1,0,0.1,0,0.2L88.2,61.7z M93.1,59.9
				c0,0.3,0,0.6-0.1,1c-0.1,0.3-0.2,0.5-0.4,0.7c-0.2,0.2-0.4,0.4-0.7,0.5c-0.3,0.1-0.7,0.2-1,0.2c-0.3,0-0.7,0-1-0.2
				c-0.3-0.1-0.5-0.2-0.7-0.4c-0.2-0.2-0.3-0.4-0.4-0.7c-0.1-0.3-0.1-0.6-0.1-1c0-0.3,0-0.6,0.1-1c0.1-0.3,0.2-0.5,0.4-0.7
				c0.2-0.2,0.4-0.4,0.7-0.5c0.3-0.1,0.7-0.2,1-0.2c0.3,0,0.7,0,1,0.1c0.3,0.1,0.5,0.2,0.7,0.4c0.2,0.2,0.3,0.4,0.4,0.7
				C93.1,59.2,93.1,59.5,93.1,59.9L93.1,59.9z M91.9,59.9c0-0.2,0-0.4,0-0.6c0-0.2-0.1-0.3-0.2-0.4c-0.1-0.1-0.2-0.2-0.3-0.3
				c-0.1-0.1-0.3-0.1-0.5-0.1c-0.2,0-0.3,0-0.5,0.1c-0.1,0.1-0.2,0.2-0.3,0.3C90.1,59,90,59.1,90,59.3c0,0.2,0,0.4,0,0.6
				c0,0.2,0,0.4,0,0.6c0,0.2,0.1,0.3,0.2,0.4c0.1,0.1,0.2,0.2,0.3,0.3c0.1,0.1,0.3,0.1,0.5,0.1c0.2,0,0.3,0,0.5-0.1
				c0.1-0.1,0.2-0.2,0.3-0.3c0.1-0.1,0.1-0.3,0.2-0.4C91.9,60.3,91.9,60.1,91.9,59.9L91.9,59.9z M96.7,58.2c0,0.1,0,0.2,0,0.3
				c0,0.1,0,0.1,0,0.2l0,0h-0.3h-0.1h-0.1H96h-0.2L95.7,59l-0.2,0.2l-0.2,0.3v2.6l0,0h-0.1H95h-0.6h-0.2h-0.1l0,0V58l0,0l0,0h0.2
				h0.5h0.2l0,0l0,0v0.5c0.1-0.1,0.2-0.3,0.3-0.4l0.3-0.2c0.1-0.1,0.2-0.1,0.3-0.1H96h0.3h0.1l0,0l0,0l0,0c0,0,0,0.1,0,0.1
				c0,0,0,0.2,0,0.3L96.7,58.2z M98.6,61.9L98.6,61.9L98.6,61.9h-0.3h-0.6h-0.2h-0.1l0,0V58l0,0h0.1h0.2h0.6h0.2h0.1l0,0v4.1V61.9z
				 M98.7,56.4c0,0.2,0,0.3-0.1,0.5c-0.3,0.2-0.7,0.2-1.1,0c-0.1-0.1-0.2-0.3-0.1-0.5c0-0.1,0.1-0.2,0.2-0.3c0.3-0.2,0.7-0.2,1.1,0
				c0.1,0.1,0.2,0.3,0.1,0.5L98.7,56.4z"/>
			<path class="st0" d="M103.6,62.1L103.6,62.1L103.6,62.1h-0.3h-0.6h-0.2h-0.1l0,0v-2.4c0-0.2,0-0.3,0-0.5c0-0.1-0.1-0.2-0.1-0.3
				c-0.1-0.1-0.1-0.1-0.2-0.2c-0.1,0-0.2,0-0.3,0c-0.2,0-0.3,0.1-0.4,0.2c-0.2,0.1-0.3,0.3-0.5,0.5v2.7l0,0h-0.1h-0.2h-0.6H100h-0.1
				l0,0V58l0,0l0,0h0.2h0.5h0.2l0,0l0,0v0.5c0.2-0.2,0.4-0.4,0.7-0.6c0.2-0.1,0.5-0.2,0.7-0.2c0.2,0,0.5,0,0.7,0.1
				c0.2,0.1,0.3,0.2,0.5,0.4c0.1,0.2,0.2,0.4,0.2,0.6c0,0.3,0,0.5,0,0.8L103.6,62.1L103.6,62.1z M104.6,62.5l1.3,0.2
				c0,0.1,0.1,0.2,0.1,0.3c0.2,0.1,0.3,0.1,0.5,0.1c0.2,0,0.5,0,0.7-0.1c0.1-0.1,0.2-0.2,0.2-0.3c0-0.2,0-0.3,0-0.5v-0.6
				c-0.3,0.4-0.8,0.7-1.3,0.7c-0.6,0-1.1-0.3-1.4-0.7c-0.3-0.4-0.4-0.9-0.4-1.4c0-0.6,0.1-1.2,0.5-1.7c0.3-0.4,0.8-0.6,1.3-0.6
				c0.5,0,1,0.3,1.3,0.7V58h1.1v3.9c0,0.4,0,0.8-0.1,1.1c-0.1,0.2-0.2,0.4-0.4,0.6c-0.2,0.2-0.4,0.3-0.6,0.3c-0.3,0.1-0.6,0.1-1,0.1
				c-0.5,0-1.1-0.1-1.5-0.4c-0.3-0.2-0.5-0.6-0.5-1C104.5,62.7,104.5,62.7,104.6,62.5L104.6,62.5z M105.6,60c0,0.4,0.1,0.7,0.3,1
				c0.2,0.2,0.4,0.3,0.7,0.3c0.3,0,0.5-0.1,0.7-0.3c0.2-0.3,0.3-0.6,0.3-1c0-0.4-0.1-0.7-0.3-1c-0.2-0.2-0.4-0.3-0.7-0.3
				c-0.3,0-0.5,0.1-0.7,0.3C105.7,59.3,105.6,59.7,105.6,60z"/>
		</g>
	</g>
</g>
</svg>
